<svg width="23" height="24" viewBox="0 0 23 24" fill="none" xmlns="http://www.w3.org/2000/svg">
<path d="M7.23619 11.8475C7.25097 11.7993 7.26108 11.7487 7.28053 11.7021C7.33341 11.5753 7.36375 11.5535 7.4493 11.4493L13.6753 5.2241C13.7538 5.15955 13.8339 5.09422 13.9273 5.05533C14.257 4.91844 14.6731 5.04366 14.8723 5.34154C15.0426 5.59665 15.0426 5.95131 14.8723 6.20642C14.8443 6.24919 14.8077 6.28497 14.7758 6.32463L9.10049 12L14.7758 17.6745L14.8723 17.7927C14.8964 17.8378 14.9244 17.8806 14.9438 17.9273C15.0807 18.2563 14.9594 18.67 14.6576 18.8723C14.4025 19.0426 14.0478 19.0426 13.7927 18.8723C13.7507 18.8435 13.7142 18.8077 13.6753 18.775L7.4493 12.5498C7.41741 12.5102 7.38086 12.4744 7.35286 12.4316C7.29608 12.3468 7.25642 12.252 7.23619 12.1516C7.21675 12.0521 7.22686 11.9494 7.23619 11.8475Z" fill="#333333"/>
</svg>
